HIERARCHY
ROOT Hips
{
 OFFSET 0.000000 0.000000 0.000000
 CHANNELS 6 Xposition Yposition Zposition Yrotation Xrotation Zrotation
 JOINT Chest
 {
  OFFSET 0.000000 9.581000 -0.001100
  CHANNELS 3 Yrotation Xrotation Zrotation
  JOINT Chest2
  {
   OFFSET 0.000000 9.561100 0.002200
   CHANNELS 3 Yrotation Xrotation Zrotation
   JOINT Chest3
   {
    OFFSET 0.000000 9.521100 0.000000
    CHANNELS 3 Yrotation Xrotation Zrotation
    JOINT Chest4
    {
     OFFSET 0.000000 9.511400 0.000000
     CHANNELS 3 Yrotation Xrotation Zrotation
     JOINT Neck
     {
      OFFSET 0.000000 14.375100 0.000000
      CHANNELS 3 Yrotation Xrotation Zrotation
      JOINT Head
      {
       OFFSET 0.000000 8.901200 0.004600
       CHANNELS 3 Yrotation Xrotation Zrotation
       End Site
       {
        OFFSET 0.000000 16.962200 0.002400
       }
      }
     }
     JOINT RightCollar
     {
      OFFSET -2.920100 9.518800 0.000000
      CHANNELS 3 Yrotation Xrotation Zrotation
      JOINT RightShoulder
      {
       OFFSET -13.664500 0.000000 0.000000
       CHANNELS 3 Yrotation Xrotation Zrotation
       JOINT RightElbow
       {
        OFFSET 0.000000 -29.999200 0.000000
        CHANNELS 3 Yrotation Xrotation Zrotation
        JOINT RightWrist
        {
         OFFSET 0.000000 -24.253600 0.000000
         CHANNELS 3 Yrotation Xrotation Zrotation
         End Site
         {
          OFFSET 0.000000 -17.918900 0.000000
         }
        }
       }
      }
     }
     JOINT LeftCollar
     {
      OFFSET 2.920100 9.518800 0.000000
      CHANNELS 3 Yrotation Xrotation Zrotation
      JOINT LeftShoulder
      {
       OFFSET 13.664500 0.000000 0.000000
       CHANNELS 3 Yrotation Xrotation Zrotation
       JOINT LeftElbow
       {
        OFFSET 0.000000 -29.999200 0.000000
        CHANNELS 3 Yrotation Xrotation Zrotation
        JOINT LeftWrist
        {
         OFFSET 0.000000 -24.253600 0.000000
         CHANNELS 3 Yrotation Xrotation Zrotation
         End Site
         {
          OFFSET 0.000000 -17.918900 0.000000
         }
        }
       }
      }
     }
    }
   }
  }
 }
 JOINT RightHip
 {
  OFFSET -7.797300 0.005300 0.000500
  CHANNELS 3 Yrotation Xrotation Zrotation
  JOINT RightKnee
  {
   OFFSET 0.000000 -40.663400 -0.000500
   CHANNELS 3 Yrotation Xrotation Zrotation
   JOINT RightAnkle
   {
    OFFSET 0.000000 -39.523700 -0.000900
    CHANNELS 3 Yrotation Xrotation Zrotation
    JOINT RightToe
    {
     OFFSET 0.000000 -6.418000 14.485300
     CHANNELS 3 Yrotation Xrotation Zrotation
     End Site
     {
      OFFSET 0.000000 -1.465200 6.326400
     }
    }
   }
  }
 }
 JOINT LeftHip
 {
  OFFSET 7.797300 0.005300 0.000500
  CHANNELS 3 Yrotation Xrotation Zrotation
  JOINT LeftKnee
  {
   OFFSET 0.000000 -40.663400 -0.000500
   CHANNELS 3 Yrotation Xrotation Zrotation
   JOINT LeftAnkle
   {
    OFFSET 0.000000 -39.523700 -0.000900
    CHANNELS 3 Yrotation Xrotation Zrotation
    JOINT LeftToe
    {
     OFFSET 0.000000 -6.418000 14.485300
     CHANNELS 3 Yrotation Xrotation Zrotation
     End Site
     {
      OFFSET 0.000000 -1.465200 6.326400
     }
    }
   }
  }
 }
}
MOTION
Frames: 7
Frame Time: 0.008333
0.000000 86.422400 0.000000 0.000000 -5.767877 0.000000 0.000000 11.653817 0.000000 0.000000 -5.885947 0.000000 0.000000 -0.000000 0.000000 0.000000 -0.000000 0.000000 0.000000 12.528835 0.000000 0.000000 0.711642 0.000000 0.000000 -0.000000 0.000000 0.000000 0.000000 -90.000000 0.000000 -2.309062 0.000000 0.000000 2.309062 0.000000 0.000000 -0.000000 0.000000 0.000000 -0.000000 90.000000 0.000000 -2.309062 0.000000 0.000000 2.309062 0.000000 0.000000 8.520406 0.000000 0.000000 1.905762 0.000000 -0.000000 -4.658285 0.000000 0.000000 -0.000000 0.000000 0.000000 8.520406 0.000000 0.000000 1.905762 0.000000 -0.000000 -4.658285 0.000000 0.000000 -0.000000 0.000000
-13.781284 126.916449 27.164802 -166.412651 -50.120487 -2.846996 -3.420511 25.270758 -0.208852 -0.530659 4.069140 0.072346 -0.845948 6.498677 0.107416 -2.784296 20.876976 -0.078404 1.210962 20.637718 -1.789905 1.701285 -3.782578 -2.187167 1.580762 3.145818 1.927285 6.138356 -9.447018 -11.313451 -97.282761 -64.239556 149.207117 6.737885 23.398967 -16.777501 -8.987286 -0.931630 -0.884684 -10.627639 -9.915558 13.217475 47.260161 -44.995862 -105.353503 9.461749 -14.825152 27.001297 -5.912173 -22.737518 -7.069073 -4.425007 78.103879 -4.038584 7.146448 -12.484931 3.061396 0.001305 0.007446 0.000578 5.948102 6.478799 1.239645 128.328634 65.299491 148.041053 6.476930 12.465115 -0.267822 -0.001205 -0.007050 -0.000534
-13.781572 126.916325 27.164161 -166.424153 -50.111833 -2.836520 -3.417398 25.269401 -0.226771 -0.529455 4.068507 0.066244 -0.844913 6.497669 0.088011 -2.770683 20.874341 -0.069299 1.260551 20.546624 -1.762191 1.747371 -3.886835 -2.168266 1.582018 3.138295 1.936794 6.111205 -9.448219 -11.322578 -97.385911 -64.299090 149.290127 6.725431 23.321552 -16.818558 -8.999979 -0.936525 -0.889332 -10.611296 -9.905724 13.231721 47.283147 -44.978825 -105.378397 9.445624 -14.811350 26.978796 -5.918366 -22.730999 -7.051876 -4.523719 78.117312 -4.121219 6.909178 -12.686633 3.086272 -0.005289 0.001661 -0.002343 5.942683 6.482970 1.231005 128.328099 65.301863 148.038213 6.472992 12.451314 -0.261057 0.003544 -0.004198 0.001570
-13.781104 126.914713 27.164520 -166.453781 -50.090341 -2.815256 -3.400907 25.258750 -0.240999 -0.527824 4.067371 0.064071 -0.842345 6.495905 0.084573 -2.764317 20.872569 -0.079642 1.311727 20.451574 -1.733654 1.794951 -3.995451 -2.148791 1.577118 3.117653 1.932864 6.113389 -9.436866 -11.296654 -97.460104 -64.349895 149.353148 6.729689 23.271653 -16.891166 -9.013322 -0.941910 -0.888323 -10.595716 -9.899642 13.241358 47.301980 -44.960567 -105.404369 9.433314 -14.803071 26.958622 -5.956112 -22.748425 -7.041994 -4.452733 78.135340 -4.081131 6.801046 -12.886985 3.106735 -0.007818 -0.000729 -0.003464 5.949638 6.470776 1.225035 128.320498 65.304464 148.019468 6.475808 12.443418 -0.244632 -0.000828 -0.002681 -0.000367
-13.781443 126.915555 27.162841 -166.454004 -50.085977 -2.814793 -3.401394 25.268289 -0.255339 -0.526109 4.066967 0.062077 -0.839662 6.495285 0.081391 -2.757067 20.872393 -0.089074 1.363614 20.353227 -1.704556 1.843139 -4.107612 -2.128888 1.573342 3.090650 1.937565 6.131626 -9.416792 -11.303025 -97.555542 -64.390455 149.426258 6.723675 23.218562 -16.984735 -9.025435 -0.951516 -0.882259 -10.583869 -9.899095 13.228383 47.296159 -44.943391 -105.400839 9.419653 -14.800010 26.938593 -5.978882 -22.748744 -7.056950 -4.532205 78.173744 -4.158183 6.781924 -13.094644 3.111946 -0.002061 -0.003040 -0.000913 5.934403 6.479557 1.217048 128.318496 65.304994 148.008270 6.459368 12.411101 -0.191363 0.000985 -0.005313 0.000436
-13.780100 126.914991 27.161990 -166.467927 -50.070074 -2.812454 -3.388812 25.267476 -0.257274 -0.524524 4.067367 0.060058 -0.837175 6.495911 0.078190 -2.750101 20.873811 -0.098672 1.395196 20.293951 -1.674106 1.914938 -4.265000 -2.117397 1.573152 3.066772 1.955853 6.152551 -9.402577 -11.318661 -97.617633 -64.404002 149.465842 6.741819 23.187544 -17.084953 -9.030164 -0.963523 -0.856226 -10.574806 -9.903138 13.193543 47.311838 -44.877503 -105.432287 9.366764 -14.768146 26.952000 -5.982695 -22.763320 -7.057265 -4.627427 78.202000 -4.251528 6.781920 -13.277169 3.124190 0.001487 -0.003591 0.000659 5.926067 6.471538 1.214611 128.339787 65.304044 148.027709 6.467211 12.409140 -0.229199 0.003637 0.001695 0.001611
-13.780784 126.914586 27.161342 -166.475360 -50.055214 -2.803018 -3.387483 25.268105 -0.274605 -0.522743 4.068289 0.058104 -0.834604 6.492255 0.080816 -2.744051 20.880950 -0.113978 1.463702 20.169635 -1.642017 1.957576 -4.361364 -2.090433 1.574684 3.038788 1.974794 6.156445 -9.392986 -11.313772 -97.675748 -64.490259 149.532592 6.701391 23.115083 -17.215889 -9.041931 -0.978812 -0.840360 -10.580703 -9.891690 13.139065 47.290915 -44.909490 -105.382579 9.387823 -14.774653 26.941469 -6.008086 -22.784025 -7.072961 -4.654672 78.236313 -4.289935 6.798108 -13.450091 3.125118 0.002788 -0.003398 0.001235 5.914111 6.468861 1.202582 128.338735 65.306038 148.011569 6.433557 12.353485 -0.097950 0.005523 -0.011091 0.002447
